<svg width="24px" height="24px" viewBox="0 0 24 24" id="_003_ECOMMERCE_03" data-name="003_ECOMMERCE_03" xmlns="http://www.w3.org/2000/svg"><title>003_089</title><path d="M19,21H3a.99942.99942,0,0,1-1-1V4A.99942.99942,0,0,1,3,3H19a.99942.99942,0,0,1,1,1V5a1,1,0,0,1-2,0H4V19H18a1,1,0,0,1,2,0v1A.99942.99942,0,0,1,19,21Z" style="fill:#333"/><polygon points="9 4 9 10 11 8 13 10 13 4 9 4" style="fill:#333"/><path d="M19,16a1,1,0,0,1-.707-1.707L20.58594,12,18.293,9.707A.99989.99989,0,0,1,19.707,8.293L23.41406,12l-3.707,3.707A.99676.99676,0,0,1,19,16Z" style="fill:#333"/><path d="M21,13H14a1,1,0,0,1,0-2h7a1,1,0,0,1,0,2Z" style="fill:#333"/></svg>