<?xml version="1.0" encoding="iso-8859-1"?>
<!-- Generator: Adobe Illustrator 19.0.0, SVG Export Plug-In . SVG Version: 6.00 Build 0)  -->
<svg version="1.1" id="Layer_1" xmlns="http://www.w3.org/2000/svg" xmlns:xlink="http://www.w3.org/1999/xlink" x="0px" y="0px"
	 viewBox="0 0 489.032 489.032" style="enable-background:new 0 0 489.032 489.032;" xml:space="preserve">
<g>
	<g>
		<path d="M433.866,40.823c0-3.3-2.7-5.9-6-5.9c0,0,0,0-0.1,0c-3.3,0-6,2.8-5.9,6.1l0.4,35.4l-6.9-6.7
			c-46.7-45.6-108.4-70.3-173.7-69.6c-65.3,0.7-126.4,26.9-172,73.6c-32.7,33.4-55,75.2-64.5,120.8c-9.2,44.4-6.1,90.3,9.2,132.9
			c0.9,2.3,3.2,3.8,5.7,3.8c0.7,0,1.4-0.1,2-0.4c3.1-1.1,4.7-4.6,3.6-7.7c-30.3-84.5-10.2-176.9,52.5-241.1
			c89.6-91.7,237.1-93.4,328.7-3.8l6.9,6.7l-35.3,0.5c-3.3,0-6,2.8-5.9,6.1c0,3.3,2.7,5.9,6,5.9c0,0,0,0,0.1,0l49.9-0.6
			c1.6,0,3.1-0.7,4.2-1.8c1.1-1.1,1.7-2.7,1.7-4.3L433.866,40.823z"/>
	</g>
</g>
<g>
	<g>
		<path d="M474.666,161.623c-1.2-3-4.7-4.6-7.8-3.5c-3.1,1.1-4.7,4.6-3.6,7.7c30.3,84.6,10.2,177-52.5,241.2
			c-45.5,46.5-105.9,69.9-166.3,69.9c-58.6,0-117.3-22-162.5-66.1l-6.9-6.7l35.4-0.4c3.3,0,6-2.8,5.9-6.1c0-3.3-2.8-6-6.1-5.9
			l-49.8,0.5c-3.3,0-6,2.8-5.9,6.1l0.6,49.9c0,3.3,2.7,5.9,6,5.9c0,0,0,0,0.1,0c3.3,0,6-2.8,5.9-6.1l-0.4-35.4l6.9,6.7
			c46,45,106.6,69.6,170.8,69.6c1,0,1.9,0,2.9,0c65.3-0.7,126.4-26.9,172-73.6c32.7-33.4,55-75.2,64.5-120.8
			C493.066,250.123,489.966,204.223,474.666,161.623z"/>
	</g>
</g>
<g>
	<g>
		<path d="M379.566,188.523c-21.6-52-70.5-86.6-126.1-90c-1.8-0.2-3.5-0.3-5.3-0.3c-0.2,0-0.4,0-0.5,0c-1.1,0-2.1-0.1-3.2-0.1
			c-19.2,0-38,3.8-55.9,11.2c-74.6,30.9-110.1,116.6-79.2,191.1c22.7,54.9,75.8,90.4,135.2,90.4c0.8,0,1.5,0,2.3,0
			c0.4,0,0.9,0,1.3,0c0.2,0,0.5,0,0.7,0c1.3,0,2.5-0.1,3.8-0.2c16.4-0.9,32.4-4.6,47.8-10.9c36.1-14.9,64.2-43.1,79.2-79.1
			S394.566,224.723,379.566,188.523z M193.066,120.423c4.3-1.8,8.8-3.4,13.2-4.7c-7.3,6.7-14,15.2-19.9,25.3
			c-7.3,12.7-13.1,27.5-17.2,43.8h-45C138.166,156.823,161.866,133.423,193.066,120.423z M178.766,196.923h63.3v95.2h-62.8
			c-3.3-15.2-5.1-31.4-5.1-47.6C174.166,227.723,175.766,211.623,178.766,196.923z M118.766,292.223c-11.9-31.8-11.1-65.6,0.2-95.4
			c0.3,0,0.5,0.1,0.8,0.1h46.7c-2.9,15-4.4,31.1-4.4,47.6c0,16.4,1.6,32.4,4.7,47.6h-47.1
			C119.366,292.123,119.066,292.123,118.766,292.223z M124.166,304.123h45.6c4,15.2,9.6,29.3,16.6,41.7c6.4,11.4,13.7,20.8,21.6,28
			C171.766,363.623,141.166,338.623,124.166,304.123z M242.166,378.323c-16.8-2.6-32.7-16-45.3-38.4c-5.9-10.6-10.8-22.7-14.5-35.8
			h59.8V378.323z M242.166,184.923h-60.5c11-41.5,33.5-70.5,60.5-74.2V184.923z M364.766,184.923h-37.7
			c-4.1-16.3-9.9-31.1-17.2-43.8c-4.8-8.3-10.2-15.5-16-21.5C324.366,131.623,349.766,154.623,364.766,184.923z M254.166,110.723
			c27,3.8,49.4,32.7,60.5,74.2h-60.5V110.723z M254.166,196.923h63.3c3,14.7,4.6,30.7,4.6,47.6c0,16.2-1.8,32.4-5.1,47.6h-62.8
			V196.923z M254.166,378.323v-74.2h59.8c-3.7,13.1-8.6,25.2-14.5,35.8C286.766,362.323,270.866,375.723,254.166,378.323z
			 M295.866,368.623c-1.2,0.5-2.5,1-3.7,1.5c6.4-6.6,12.4-14.7,17.8-24.3c7-12.4,12.6-26.5,16.6-41.7h38.3
			C350.366,333.323,326.166,356.023,295.866,368.623z M369.966,292.123h-0.1h-40.6c3.1-15.2,4.7-31.3,4.7-47.6
			c0-16.6-1.5-32.6-4.4-47.6h40.3C381.766,227.723,381.766,261.223,369.966,292.123z"/>
	</g>
</g>
<g>
</g>
<g>
</g>
<g>
</g>
<g>
</g>
<g>
</g>
<g>
</g>
<g>
</g>
<g>
</g>
<g>
</g>
<g>
</g>
<g>
</g>
<g>
</g>
<g>
</g>
<g>
</g>
<g>
</g>
</svg>
